<svg xmlns="http://www.w3.org/2000/svg" fill="none" viewBox="0 0 430 225"><g clip-path="url(#a)"><path fill="#0C325A" d="M195.6 115.95a6.98 6.98 0 1 0-13.63-3.09 6.98 6.98 0 0 0 13.63 3.1"/><path fill="#4DC769" d="m215.88 194.16 8.55-13.66c-12.46-7.8-21.61-14.28-26.02-26.74l-.04-.11c-3.27-8.78-4.36-25.83-2.26-35.1L180.4 115c-2.79 12.29-1.49 32.51 2.85 44.2 6.13 17.27 18.4 26.05 32.63 34.97"/><path fill="#0C325A" d="M290.7 108.94a7.28 7.28 0 1 0-14.37 2.39 7.28 7.28 0 0 0 14.37-2.39"/><path fill="#4DC769" d="M249.2 191c15.36-8.4 28.68-16.8 36.12-34.4 5.05-11.5 9.46-29.91 7.24-43.29l-16.58 2.75c1.51 9.12-1.9 24.36-6.06 33.83l-.06.12c-5.35 12.7-15.29 18.9-28.73 26.25z"/><path fill="#4DC769" d="M201.24 199.31s14.13-29.92 32.3-29.92c18.19 0 28.34 20.04 29.75 29.92 1.4 9.88 1.6 18.3-7.83 24.3s-62.5-6.37-54.22-24.3"/><path fill="#1B73C5" fill-rule="evenodd" d="M221.9 138.2c.4.07.82.08 1.23.12.39.03.78.1 1.03.42.15.18.26.43.27.66q.01.72-.09 1.45c-.3 2 1.1 3.35 2.7 3.74.98.24 1.83-.1 2.69-.45.76-.3 1.53-.56 2.36-.5.44.03.85.19 1.06.59q.51.91.9 1.89a7 7 0 0 0 2 2.72c.54.44 1.02 1 1.7 1.25q.74.24 1.51.43c.36.09.72.2 1.08.24 1.37.18 2.42-.44 3.32-1.38a6 6 0 0 0 1.36-2.47c.13-.47.1-.98.19-1.47.03-.19.15-.37.23-.55.15 1.15.34 2.3.44 3.47q.19 2.26.29 4.54c.05 1.06 0 2.14.07 3.2a19 19 0 0 1-.3 4.29q-.4 2.26-.95 4.5a12 12 0 0 1-6.84 8.16 13 13 0 0 1-5.43 1.35l-2.14.04a17 17 0 0 1-6.4-.95 21 21 0 0 1-3.33-1.55 9.7 9.7 0 0 1-3.77-4.44 12 12 0 0 1-1.1-4.05c-.04-.67-.13-1.33-.17-2-.05-.85-.14-1.72-.07-2.57.1-1.26.32-2.52.48-3.77q.31-2.04 1.15-3.94c.27-.6.31-1.21-.18-1.75l-.3-.4q-.76-1.2-.56-2.6c.12-.82.4-1.56.72-2.3a36 36 0 0 1 3.44-6.33q.7.23 1.41.4" clip-rule="evenodd"/><path fill="#fff" d="M219.47 161.67c-.67.14-1.5.17-2.53 0a.43.43 0 0 1-.35-.5c.04-.24.26-.4.5-.36 1.55.27 2.82.03 3.66-.68a3.1 3.1 0 0 0 1.04-2.45c-.01-.24.18-.44.42-.44s.44.19.45.43a4 4 0 0 1-1.34 3.12c-.41.34-1 .7-1.85.88"/><path fill="#0C325A" fill-rule="evenodd" d="M220.49 137.8c.47.13.93.3 1.41.4.4.07.82.08 1.23.12.39.03.78.1 1.03.42.15.18.26.43.27.66q.01.72-.09 1.45c-.3 2 1.1 3.35 2.7 3.74.98.24 1.83-.1 2.69-.45.76-.3 1.53-.56 2.36-.5.44.03.85.19 1.06.59q.51.92.9 1.9a7 7 0 0 0 2 2.7c.54.45 1.02 1.01 1.7 1.26q.74.24 1.51.43c.36.09.72.2 1.08.24 1.37.18 2.42-.44 3.32-1.38a6 6 0 0 0 1.36-2.47c.13-.47.1-.98.19-1.47.03-.19.15-.37.23-.55q.74-.12 1.46-.2c.82-.1 1.66-.1 2.46-.26 1.82-.37 3.2-1.34 3.8-3.17.35-1.13.05-2.14-.6-3.09a4 4 0 0 0-1.55-1.33l-1.7-.82a4 4 0 0 1-.76-.52c-.3-.28-.35-.54-.13-.89q.43-.64.93-1.24c.97-1.16 4.36-7.07 4.28-8.58a3.6 3.6 0 0 0-2.35-3.4 9 9 0 0 0-3.84-.74c-1.74.08-3.35.6-4.7 1.76-.52.45-1.09.8-1.8.87-2.15.02-5.44-4.1-8.49-4.64-1.95-.34-4.69-.61-7.11 1.82-2.74 2.77-2.28 5.32-2.13 6.48q.14 1.15-.75 1.85-.84.7-1.61 1.45a7 7 0 0 0-1.95 4.48 3.2 3.2 0 0 0 1.4 2.92z" clip-rule="evenodd"/><path fill="#fff" fill-rule="evenodd" d="M220.73 146.73a1 1 0 0 1 .31-1.62c.88-.36 1.67.1 1.73 1.06a1 1 0 0 1-.26.63c-.4.38-1.39.32-1.78-.07" clip-rule="evenodd"/><path fill="#FF9747" fill-rule="evenodd" d="M285.56 65.27c.53 2.01 1.16 4 1.55 6.04a139 139 0 0 1 2.23 21.45q.07 2.62.4 5.23a5.6 5.6 0 0 1-1.05 4.22c-.67.12-1.35.3-2.05.36-9.78.85-19.56 1.75-29.35 2.47-9.01.66-18.03 1.15-27.04 1.63-7.27.39-14.55.83-21.8.9-7.59.08-15.15-.24-22.73-.4-.76-.03-1.5-.23-2.4-.37.18-.66.27-1.23.49-1.77 2.5-6.21 4.92-12.43 7.55-18.61a74 74 0 0 1 10.32-16.87c.8 1.08 1.81 2.1 2.38 3.26 1.06 2.11 2.95 3.38 6 3.53 3.03.15 5.2-.92 6.6-3.03 1.09-1.6 2.35-3.15 3.6-4.7.59-.75 1.28-1.58 2.6-1.56 1.3.02 1.82.83 2.16 1.64.47 1.09.86 2.2 1.32 3.3.47 1.15.8 2.37 1.53 3.42 1.48 2.1 4.28 2.33 6.72.61.95-.68 1.74-1.53 2.43-2.38.88-1.08 1.57-2.25 2.38-3.37a9 9 0 0 1 4.25-3.25c.5.75 1.08 1.43 1.43 2.18.6 1.26.96 2.58 1.57 3.83.5 1 1.08 2.01 1.87 2.89.96 1.07 2.12 1.22 3.87.8a8.3 8.3 0 0 0 4.38-2.56c1-1.18 1.82-2.44 2.69-3.68.83-1.18 1.5-2.43 2.45-3.56 1.15-1.37 2.74-1.3 3.5.11.41.77.62 1.6.94 2.39.47 1.15.81 2.36 1.46 3.45 1.7 2.84 5.43 3.54 9.04 1.62 1.35-.71 2.36-1.8 3.47-2.76 1.01-.88 1.48-1.99 2.8-2.84 1.05-.68 1.32-2.07 1.96-3.14.11-.17.32-.32.48-.48" clip-rule="evenodd"/><path fill="#0C325A" fill-rule="evenodd" d="M285.56 65.27c-.16.16-.37.3-.48.49-.64 1.06-.9 2.45-1.97 3.13-1.3.85-1.78 1.96-2.8 2.84-1.1.96-2.11 2.05-3.46 2.76-3.61 1.92-7.34 1.22-9.04-1.62-.64-1.09-1-2.3-1.45-3.45-.33-.8-.53-1.62-.94-2.39-.77-1.4-2.36-1.48-3.51-.1-.95 1.12-1.62 2.37-2.45 3.55-.87 1.24-1.69 2.5-2.7 3.68a8.3 8.3 0 0 1-4.37 2.55c-1.75.43-2.91.28-3.86-.8a12 12 0 0 1-1.88-2.88c-.6-1.25-.98-2.57-1.57-3.83-.35-.75-.92-1.43-1.43-2.18a9 9 0 0 0-4.25 3.25c-.8 1.12-1.5 2.3-2.38 3.37-.7.85-1.47 1.7-2.43 2.38-2.44 1.72-5.24 1.49-6.72-.61-.73-1.05-1.06-2.27-1.53-3.42-.46-1.1-.85-2.21-1.31-3.3-.35-.8-.87-1.62-2.18-1.64-1.3-.02-2 .81-2.6 1.56-1.24 1.55-2.5 3.1-3.59 4.7-1.4 2.11-3.57 3.18-6.6 3.03-3.04-.15-4.94-1.41-6-3.53-.57-1.15-1.57-2.18-2.38-3.26 1.27-1.67 2.45-3.39 3.81-5.02 8.45-10.11 20.3-16.76 35.55-19.8a79 79 0 0 1 13.51-1.72 30 30 0 0 1 19.34 6.37c3.78 2.85 6.38 6.32 8.82 9.87 1.23 1.8 2.81 3.47 2.88 5.64q0 .2-.03.38" clip-rule="evenodd"/><path fill="#4DC769" d="m405 92.67-.12.6 9.15 1.73.1-.6z"/><path fill="#1D9A3F" d="m404.88 93.26.11-.6-77.57-14.72-.03.62z"/><path fill="#4DC769" d="m404.88 93.26-.5 2.47-77.1-14.35.11-2.82.03-.62-13.17-2.5-3.46 19.21 100.3 18.69L414.04 95zm-78.98-3.13-6.84-1.23.41-2.28 6.84 1.23zM341.86 93l-6.84-1.23.4-2.28 6.85 1.23zm15.95 2.87-6.84-1.23.41-2.28 6.84 1.23zm15.96 2.88-6.84-1.24.41-2.28 6.84 1.24zm15.95 2.87-6.84-1.23.42-2.28 6.83 1.23zm15.96 2.87-6.84-1.23.4-2.28 6.85 1.23z"/><path fill="#fff" d="m319.06 88.88 6.84 1.23.41-2.28-6.84-1.23zm15.96 2.87 6.84 1.23.4-2.28-6.83-1.23zm15.96 2.87 6.83 1.23.41-2.28-6.84-1.23zm47.86 8.62 6.84 1.23.4-2.28-6.83-1.23zm-15.97-2.85 6.84 1.23.4-2.28-6.83-1.23zm-15.96-2.87 6.84 1.23.41-2.28-6.84-1.23z"/><path fill="#1D9A3F" d="m327.29 81.38 77.1 14.35.49-2.47-77.49-14.7z"/><path fill="#F2AF3A" d="M324.4 180.05s6.88-26.6 26.85-28.59c19.98-2 37.4 22.66 33.72 40.66s-49.8 26.89-58.17 18.43-3.84-25.27-2.4-30.5"/><path fill="#FF9747" d="M341.43 149.61a10.4 10.4 0 0 0 3.7 3.42c1.07.54 2.25.96 3.43 1.3q3.61 1.04 7.3.58c1.64-.22 3.16-.76 4.57-1.5a14 14 0 0 0 2.94-2c.38-.34.82-.65 1.23-.96q-.23-.33-.42-.73-.03-.08-.1-.14-.02-.54-.54-.55l-1.85.01c-.8.01-1.53-.15-2.05-.81q-.55-.71-.8-1.6c-.06-.23-.23-.44-.38-.64-.32-.42-.81-.38-1.26-.44a3.7 3.7 0 0 1-1.81-.7c-.54-.4-1.03-.87-1.17-1.53a5 5 0 0 1 .5-3.33c.44-.95 1.14-1.77 1.28-2.86 0-.06.05-.13.07-.2q.72-1.7.22-3.5a6.5 6.5 0 0 0-2.57-3.54c-.58-.42-1.25-.72-1.88-1.07q-.64-.38-1.31-.7a8 8 0 0 1-3.08-2.33c-.47-.58-.88-1.22-1.32-1.83l-.25-1.07a8 8 0 0 1-.43 1.9c-1.55 2.43-4.72 5-6.49 7.33a4.2 4.2 0 0 0-1.02 2.79c.05 1 .55 1.81 1.56 2.35.33.18.45.33.39.67q-.51 2.69-.56 5.42a10.2 10.2 0 0 0 2.1 6.26m5.33-17.2a1 1 0 0 1-.48-.48c-.3-.9.26-1.63 1.2-1.63.7 0 1.18.73.9 1.38-.23.5-1.11.93-1.62.73m-6.13 13.27c0-.2.18-.36.39-.36 5.83.2 6.66-3.44 6.69-3.6a.37.37 0 1 1 .73.14c-.01.04-.7 3.29-5.05 4.05q-1.05.2-2.4.15a.37.37 0 0 1-.36-.38"/><path fill="#0C325A" d="M346.28 131.93c-.3-.9.26-1.63 1.2-1.63.7 0 1.18.73.9 1.38-.23.5-1.11.93-1.62.73a1 1 0 0 1-.48-.48"/><path fill="#fff" d="M346.28 131.93c-.3-.9.26-1.63 1.2-1.63.7 0 1.18.73.9 1.38-.23.5-1.11.93-1.62.73a1 1 0 0 1-.48-.48"/><path fill="#0C325A" d="M364.09 149.58q-.03-.54-.55-.55l-1.85.01c-.8.01-1.53-.15-2.06-.81a5 5 0 0 1-.78-1.6c-.07-.23-.24-.44-.4-.64-.31-.42-.8-.38-1.25-.44a3.7 3.7 0 0 1-1.82-.7c-.53-.4-1.02-.87-1.16-1.53a5 5 0 0 1 .5-3.33c.44-.94 1.14-1.77 1.27-2.86q.03-.1.08-.19.72-1.73.22-3.5a6.5 6.5 0 0 0-2.57-3.55c-.58-.42-1.25-.72-1.88-1.07q-.64-.38-1.31-.7a8 8 0 0 1-3.09-2.33c-.46-.58-.88-1.22-1.31-1.83l-.25-1.07q-.16-.66-.27-1.32-.05-.16-.03-.34c7.05 2.1 20.28 5.99 22.21 6.1q.47.03.8-.2-.01.33.05.67c.16.91 2.4 3.76 2.69 4.21q1.19 1.9 2.44 3.74a10 10 0 0 1 1.42 3.71c.22 1.17.25 6.2-2.37 10.4a5 5 0 0 1-2.51 2.2c-.4.14-.86.15-1.3.16-.93.02-1.84-.1-2.72-.45a3.6 3.6 0 0 1-1.69-1.32q-.23-.33-.42-.73-.03-.08-.1-.14"/><path fill="#F2AF3A" d="M367.8 127.33c-1.94-.11-15.17-4-22.22-6.1-2.44-.73-4.14-1.24-4.37-1.33-.88-.28-2.7-.8-4.13-1.23s-1.44-2.7.62-2.22 3.72 1 4.82 1.36l1.72.62 1.74.6q.06-.17.07-.26a8 8 0 0 1 1.56-3.56 10.6 10.6 0 0 1 4.4-3.44q1.84-.84 3.88-.94 1.24-.06 2.5-.06.13 0 .25.04c.03.43.23.83.53 1.08.58.5 1.65.64 2.24-.2q.17-.29.32-.61c1.3.18 2.42.75 3.41 1.62.98.85 1.9 1.73 2.6 2.83a8.4 8.4 0 0 1 1.32 3.38q.25 1.72.4 3.45c.05.52 0 1.06-.03 1.58-.06.83-.02 1.06-.1 1.89-.04.3-.17.58-.26.88q-.21.25-.47.41-.35.24-.8.21"/><path fill="#4DC769" d="M359.17 111.9q-.47-.42-.53-1.1c.05-.58.28-1.05.81-1.36.51-.3 1.02-.27 1.5 0 .51.26.76.73.78 1.3v.34q-.14.31-.32.6c-.59.85-1.66.71-2.24.21"/><path fill="#fff" d="M341.02 145.32c5.83.2 6.66-3.44 6.69-3.6a.37.37 0 1 1 .73.14c-.01.04-.7 3.29-5.05 4.05q-1.05.2-2.4.15a.37.37 0 1 1 .03-.74"/><path fill="#FF9747" d="M325.4 104.99a6.02 6.02 0 1 0-10.9-5.11 6.02 6.02 0 0 0 10.9 5.1"/><path fill="#F2AF3A" d="m344.58 178.6-6.46-1.4c-8.63-1.88-16.6-13.05-21.18-22.88-3.76-8.06-9.48-24.3-5.52-42.5l1.4-6.45 12.9 2.8-1.4 6.46c-3.1 14.26 1.45 27.3 4.44 33.8 4.97 10.82 10.75 15.48 12.19 15.87l6.45 1.4z"/><path fill="#FF9747" d="M395.2 117.9a6.02 6.02 0 1 1 12-.85 6.02 6.02 0 0 1-12 .86"/><path fill="#F2AF3A" d="M359.8 180.99q-1.09 0-2.11-.16l-6.53-1 2.01-13.06 6.53 1c1.45.16 8.53-2.11 17.05-10.42 5.12-5 14.05-15.53 16.28-29.96l1-6.52 13.06 2.02-1 6.52c-2.85 18.4-14.02 31.51-20.42 37.68-7.19 6.94-17.47 13.9-25.87 13.9"/><path fill="#FF9747" d="m343.27 77.96-3.97-.78q-3-.55-5.98-1.06c-1.5-.26-3.02-.46-4.51-.74-.53-.1-1.03-.4-1.55-.61l.26-2.08.5-1.57c.36-1.26.68-2.53 1.09-3.78.22-.7.71-1.22 1.55-1.12 1.45.17 2.9.28 4.34.58 2 .42 3.95 1.12 6.04 1.04.98-.04 1.98 0 2.67-.87q1.71-2.16 3.38-4.35a16 16 0 0 1 5.8-4.94c3.04-1.44 6.28-2.3 9.55-3.08 2.03-.48 4.1-.26 6.16-.06.26.02.52-.03.77-.04l4.98.64c.08.06.16.15.25.17 1 .23 2 .42 3 .68 3.05.81 5.9 2.06 8.5 3.9a14 14 0 0 1 5.75 8.72c.42 2.05.7 4.14 1.03 6.2q.2 1.35 1.5 1.61c2.04.38 9.08 1.47 10.73 1.74q.63.1 1.25.3c1.19.41 1.46.82 1.63 1.91.06.4 0 .83 0 1.25l-.24 1.8c-.16.52-.37 1.04-.48 1.58-.26 1.31-.83 1.88-2.49 1.68-1.24-.14-14.08-1.3-15.65-1.35l-13.1-.9c-.4-.14-.79-.32-1.2-.4q-2.28-.47-4.58-.88-2.91-.54-5.83-1.04-2.04-.35-4.09-.67-.15-.06-.32-.1c-1.33-.2-2.6-.88-4-.47z"/><path fill="#F2AF3A" fill-rule="evenodd" d="m382.06 90.14-1.67-.2q-.47-.15-.94-.33a4.4 4.4 0 0 1-2.6-2.83c-.17-.53-.43-1.06-.46-1.63-.15-3.34 1.04-4.76 2.77-6.2l.13-.09c1.51-1.12 3.08-1.24 4.86-.77 2.86.74 4.24 2.58 4.62 3.95.23.85.45 2.27.34 3.16-.43 3.87-5.1 5.13-7.05 4.94m-26.19-9.48c-.62 1.64-2.45 2.61-4.23 3.13-2.23.65-5.86-.07-7.06-2.17a8 8 0 0 1-.88-2.48c-.35-2.03 1.01-5.62 3.37-6.56 1.2-.49 2.57-.58 3.88-.77a4.2 4.2 0 0 1 3.82 1.21c1.3 1.4 2.36 2.95 1.86 5.06-.23.93-.14.93-.76 2.58" clip-rule="evenodd"/><path fill="#1B73C5" fill-rule="evenodd" d="M335.18 71.71a1.69 1.69 0 1 0-3.35-.43 1.69 1.69 0 0 0 3.35.43" clip-rule="evenodd"/><path fill="#0C325A" d="m355.2 58.6-3-.56a16 16 0 0 0-5.1 4.58l-2.01 2.6 8.48 1.62zm34.4 4.77a14 14 0 0 1 2.25 5.24q.45 2.28.78 4.6l.06.36-7.8-1.27 1.29-9.33zm-31.1-4.13 10.52 1.28-.96 9.1-10.95-1.69zm13.4 1.46 10.52 1.27-.96 9.1-10.94-1.68z"/><path fill="#4DC769" d="m163.43 84.64-3.24.35.57 5.24-56.25 6.13-.58-5.24-3.71.4.57 5.25-45.56 4.97-.57-5.24L50 97l.57 5.25L5 107.2l-.57-5.24-3.58.4c.97 13.44 16.05 24.39 29.64 15.68 6.7-4.3 12.73-3.16 18.74 1.16q1.2.86 2.41 1.68c7.73 5.18 15.94 5.7 24.4 2.22 3.1-1.27 6.04-2.95 8.97-4.58 7.77-4.31 16.05-6.53 24.95-6.22 5.72.2 11.15-.87 16.21-3.54 6.53-3.43 13.52-4.35 20.77-4.02 3.35.14 6.7.4 10.06.39 5.25-.01 9.24-2.83 10.6-7.29 1.3-4.23-.66-10.84-4.17-13.21"/><path fill="#1D9A3F" d="M50.56 102.25 49.99 97l-45.56 4.97.57 5.24zm50.24-5.48-.58-5.24-45.56 4.97.57 5.24zm59.95-6.55-.57-5.24-56.25 6.14.57 5.24z"/><path fill="#1B73C5" d="M88.31 161.5c-19.84 2.35-24.79 25.2-24.79 25.2s-6.9 16.9 0 21.95c10.37 7.6 55.93.05 56.58-13.4.43-9-15.93-35.65-31.79-33.76"/><path fill="#F2AF3A" d="M84.75 156.8c-1.7 1.16-3.6 1.94-5.44 2.81l.38.39c.52.47 1.16.83 1.68 1.3.77.7 1.64 1.23 2.58 1.7a11 11 0 0 0 3.97 1.22q3.17.31 6.23-.72 1.52-.5 2.89-1.27a9 9 0 0 0 3.05-3.17 9.5 9.5 0 0 0 1.58-5.68q-.13-2.45-.65-4.85c-.07-.3.03-.44.3-.6a2.4 2.4 0 0 0 1.26-2.17 4 4 0 0 0-.97-2.48c-1.59-2.04-2.93-4.21-4.34-6.35l-.9-1.36a8.4 8.4 0 0 0-5.1 3.74 9 9 0 0 0-1.25 6.27 6.6 6.6 0 0 0 2.03 4.06c.52.46.52.81.1 1.36a15 15 0 0 1-3.45 3.22c-1.3.88-2.65 1.7-3.95 2.57"/><path fill="#FF9747" d="m73.29 145.33.02-.19.33-.08c1.07-.3 2.16-.56 3.22-.91a26 26 0 0 0 4.64-2.12c1.92-1.1 3.87-2.17 5.7-3.42 1.98-1.34 3.84-2.87 5.75-4.32q.74-.59 1.47-1.2l1.94 2.48a8.4 8.4 0 0 0-5.1 3.74 9 9 0 0 0-1.23 6.27 6.6 6.6 0 0 0 2.02 4.06c.52.46.52.81.1 1.36a15 15 0 0 1-3.45 3.22c-1.3.88-2.65 1.7-3.95 2.57-1.7 1.17-3.6 1.95-5.44 2.82l-.13.06-.7.29c-.75.3-1.5.56-2.22.91-.68.32-1.2.07-1.45-.57-.58-1.38-1.17-2.77-1.54-4.22-.32-1.26-.39-2.6-.48-3.9-.17-2.3.09-4.59.5-6.85"/><path fill="#0C325A" d="M87.2 138.61c-1.83 1.25-3.78 2.32-5.7 3.42a26 26 0 0 1-4.64 2.12c-1.06.35-2.15.61-3.22.9l-.33.1-.09-.02c-1.33-.03-2.07-.93-1.93-2.25a35 35 0 0 1 2.18-8.47c.48-1.28.96-2.55 1.65-3.74a8 8 0 0 1 2.5-2.7l-1.04-.92a.66.66 0 1 1 .88-.98l1.4 1.24a9 9 0 0 1 2.69-.64c3.76-.33 7.2.7 10.47 2.47.88.48 1.77.97 2.46 1.71q.28.29.47.64.35.72-.23 1.3l-.3.3-1.47 1.2c-1.9 1.46-3.77 2.98-5.75 4.32"/><path fill="#fff" d="M101.43 153.44a.3.3 0 0 0 .07-.2.3.3 0 0 0-.3-.27 2.2 2.2 0 0 1-2.32-2.1.3.3 0 0 0-.29-.26.3.3 0 0 0-.26.3 2.8 2.8 0 0 0 2.9 2.62q.13 0 .2-.1"/><path fill="#fff" fill-rule="evenodd" d="M96.55 141.33a.9.9 0 0 0-1.45-.35c-.62.59-.53 1.41.23 1.82.17.08.43.1.6.02.48-.19.8-1.02.62-1.49" clip-rule="evenodd"/><path fill="#0C325A" d="M130.39 111.3a5.16 5.16 0 1 1 10.25-1.03 5.16 5.16 0 0 1-10.25 1.03"/><path fill="#1B73C5" d="m104.77 177.32-5.73-12.29c11.21-5.23 19.52-9.7 24.5-19.65l.04-.1c3.63-6.98 6.31-21.11 5.52-29.07l13.49-1.35c1.06 10.55-2.12 27.3-6.95 36.63-6.91 13.78-18.06 19.85-30.87 25.83"/><path fill="#0C325A" d="M44.85 120.35a5.16 5.16 0 1 0-10.3.36 5.16 5.16 0 0 0 10.3-.36"/><path fill="#1B73C5" d="m79.16 182.29 4.02-12.95c-11.82-3.67-20.66-6.97-26.93-16.15l-.06-.1c-4.54-6.43-9.1-20.07-9.4-28.06l-13.54.49c.38 10.6 5.8 26.77 11.83 35.35 8.72 12.73 20.59 17.23 34.08 21.42"/><path fill="#4DC769" d="m406.84 181.77-.1-.06-4.38 11.26 3.9 1.52 4.46-11.46-.26-.06c-1.22-.34-2.37-.43-3.62-1.2"/><path fill="#1B73C5" d="M426.42 150.6c-.67-.52-5.1-4.5-11-2.92a9.7 9.7 0 0 0-5.16 3.34 15 15 0 0 0-2.81 5.55c-.45 1.96.1 4.29 1.44 6.36a9.4 9.4 0 0 0-4.6 3.16 15 15 0 0 0-2.8 5.54c-.77 3.3 1.32 7.7 5.26 10.08l.09.06c1.25.77 2.4.86 3.62 1.2l.26.06c3.92 1 7.52-.25 10.02-3.48q.9-1.22 1.64-2.54c.8-1.4 1.3-2.92 1.16-4.53a8 8 0 0 0-1.27-4.69c1.69-.6 3.2-1.7 4.44-3.3q.89-1.22 1.64-2.55a8 8 0 0 0 1.16-4.52c.26-2.32-1.25-5.36-3.1-6.82"/><path fill="#FF9747" fill-rule="evenodd" d="M283.03 186.35c-.83-2.22-1.06-4.66-1.54-7.01-.07-.4-.04-.85.04-1.26.15-.88.57-1.6 1.48-1.9q1.46-.46 2.46.72c.77.92 1.56 1.82 2.55 2.97.3-.95.5-1.72.77-2.47.46-1.25.83-2.7 2.41-2.93 1.45-.2 2.3.89 3.08 1.9.68.88 1.3 1.8 2.25 3.11.28-1.4.38-2.47.73-3.45.42-1.18.9-2.4 1.65-3.35.88-1.11 2.03-1.08 3.2-.23.33.24.66.54.9.88 2.42 3.3 3.35 6.95 2.45 10.97a8 8 0 0 1-3 4.5 19 19 0 0 1-6.02 3.03c-5.03 1.2-11.41-.16-13.41-5.48" clip-rule="evenodd"/><path fill="#1B73C5" fill-rule="evenodd" d="M166.75 28.35c2.3 3.48 5.55 6.01 8.54 9.16-.68.2-1.13.37-1.6.46l-12.83 2.58c-.45.1-.85.4-1.7.8 5.58 3.17 11.33 4.87 16.75 7.69l-4.25 6.33c-.6.9-1.25 1.79-1.82 2.73-.6.96-.52 1.43.2 2.33.69.84 1.14.98 2.26.53q1.19-.49 2.3-1.17 9.9-6.22 19.8-12.49c.39-.24.76-.53 1.15-.75.62-.37.85-.86.73-1.58q-.7-4.43-1.28-8.87c-.11-.83-.72-.95-1.32-1.13q-3.9-1.06-7.8-2.17-8.43-2.43-16.85-4.88c-.74-.22-1.53-.67-2.28.43" clip-rule="evenodd"/><path fill="#F2AF3A" fill-rule="evenodd" d="m201.3 33.25-.1 3a6.8 6.8 0 0 1 4.8.53c.9.48 1.54 1.2 1.54 2.27 0 1.13-.64 1.94-1.64 2.34-1.44.58-2.87 1.23-4.47 1.25.25 1.2.43 2.4.77 3.56.24.86.76 1.12 1.78 1.03q3.28-.28 6.54-.65 1.38-.17 2.75-.4-.1-.67-.16-1.36c-.2-2.2.8-3.98 2.07-5.67 1.46-1.95 3.42-2.63 5.77-2.37 2.2.24 3.65 1.7 4.87 3.3.8 1.05 1.54 2.24 1.57 3.66 6.76-1.14 13.52-2.24 20.26-3.44 3.29-.6 6.53-1.39 9.8-2.09a8.5 8.5 0 0 1 3.41-8.57c2.2-1.66 4.63-1.84 7.18-.68 2.64 1.2 4.36 3.26 5.62 5.78 2.13-.5 4.26-1.06 6.4-1.51 2.36-.5 2.83-2.14 2.45-4.08q-.15-.68-.44-1.32c-1.46-3.37-2.9-6.75-4.43-10.1a15 15 0 0 0-1.77-2.9 9.3 9.3 0 0 0-5.09-3.37 22 22 0 0 0-7.52-.75c-4.85.41-9.63 1.27-14.42 2.09-3.26.55-6.53.97-9.78 1.53q-12.61 2.2-25.22 4.46-2.13.34-4.2.94c-2.3.69-4.4 1.75-5.76 3.88.17.02.34.08.5.07 3.06-.32 6.12-.7 9.18-.94 1.16-.09 2.36.08 3.52.24 1.03.15 2 .6 2.5 1.57.86 1.7 1.25 3.56 1.26 5.48 0 .57-.22.97-.85 1.08-.37.06-.72.25-1.09.3q-2.06.33-4.13.57-5.23.6-10.45 1.15c-1 .1-2.02.08-3.03.12" clip-rule="evenodd"/><path fill="#4DC769" fill-rule="evenodd" d="M273.66 34.74c-1.26-2.52-2.98-4.57-5.62-5.78-2.55-1.16-4.99-.98-7.18.68a8.5 8.5 0 0 0-3.42 8.57c.96 1.24 1.83 2.56 2.9 3.69a8.4 8.4 0 0 0 8.54 2.55 6.9 6.9 0 0 0 5.16-6.95c-.05-.92-.26-1.84-.38-2.76" clip-rule="evenodd"/><path fill="#0C325A" fill-rule="evenodd" d="M201.3 33.25c1-.04 2.02-.02 3.02-.12q5.22-.55 10.44-1.15 2.08-.23 4.14-.56c.37-.06.72-.24 1.1-.3.62-.12.84-.52.84-1.08q.02-2.91-1.27-5.49c-.5-.96-1.46-1.42-2.49-1.56a16 16 0 0 0-3.52-.25c-3.06.24-6.12.62-9.19.94-.15.01-.32-.05-.49-.07a11 11 0 0 0-2.07 5.04c-.27 1.52-.35 3.06-.52 4.6" clip-rule="evenodd"/><path fill="#4DC769" fill-rule="evenodd" d="M227.4 43.74c-.04-1.42-.77-2.61-1.58-3.66-1.22-1.6-2.67-3.06-4.87-3.3-2.35-.26-4.3.42-5.77 2.37-1.26 1.7-2.27 3.46-2.07 5.67q.06.69.16 1.36c1.23 1.17 2.38 2.42 3.68 3.48a6.64 6.64 0 0 0 8-.03 5.8 5.8 0 0 0 2.15-3.76q.16-1.06.3-2.13" clip-rule="evenodd"/><path fill="#1B73C5" fill-rule="evenodd" d="M201.43 42.64c1.6-.02 3.03-.67 4.47-1.25 1-.4 1.64-1.21 1.64-2.34 0-1.07-.64-1.79-1.55-2.27a6.8 6.8 0 0 0-4.78-.53z" clip-rule="evenodd"/><path fill="#FF9747" fill-rule="evenodd" d="m29.9 162.45-1.15-1.16c-1.17-1.13-2.33-2.3-3.55-3.37-1.55-1.37-3.2-2.62-4.62-4.13l-.35-.37 5.1-1.7c.97-.31 1.04-.63.33-1.36l-1.15-1.16c-1.18-1.13-2.33-2.3-3.55-3.38-1.55-1.36-3.2-2.6-4.62-4.12a23 23 0 0 0-3.97-3.43c-.3-.21-.58-.28-.92-.24a1.6 1.6 0 0 0-1.43 1.07l-.32.88a20 20 0 0 0-.66 3.23c-.25 2-.62 3.98-.9 5.97-.22 1.53-.36 3.06-.56 4.6l-.44 3.35c-.03.2 0 .43 0 .66 1.17-.33 2.26-.61 3.33-.94q1.36-.41 2.71-.85c-.25 1.76-.55 3.51-.8 5.27-.22 1.53-.36 3.06-.55 4.6q-.22 1.68-.46 3.35v.67c1.18-.34 2.27-.62 3.34-.95q1.35-.41 2.71-.85c-.25 1.76-.55 3.51-.8 5.27-.22 1.53-.36 3.07-.55 4.6l-.45 3.35c-.03.21 0 .43 0 .67q1.74-.47 3.33-.95l4.46-1.4 3.69-1.4q.75-.31 1.53-.6l5.19-1.73c.95-.31 1.03-.63.31-1.35q-.56-.6-1.14-1.17c-1.17-1.13-2.33-2.3-3.55-3.37-1.54-1.38-3.2-2.61-4.62-4.13l-.35-.37 5.1-1.7c.96-.32 1.04-.63.33-1.36" clip-rule="evenodd"/><path fill="#0C325A" d="m27.86 178.06-5.02 1.76 4.18 11.94 5.03-1.76z"/><path fill="#F2AF3A" fill-rule="evenodd" d="m87.39 24.45-2.73.14c-1.76-.4-3.52-.76-5.26-1.2a9 9 0 0 1-2.03-.8c-2.53-1.32-4.44-3.2-5.05-6.1-.38-1.8-.2-3.59.23-5.36.7-2.9 2.16-5.38 4.1-7.61.53-.63 5.55-3.1 5.96-3.12 4.63-.1 11.8 4.14 13.21 10.53a9.4 9.4 0 0 1-1.76 8.23 21 21 0 0 1-4.54 4.23c-.65.45-1.42.71-2.13 1.06" clip-rule="evenodd"/><path fill="#0C325A" fill-rule="evenodd" d="M4.76 65.44c-.97.04-1.94.12-2.91.13C.6 65.57.5 65.4.39 64.15a4 4 0 0 1 .75-2.6c3.1-4.8 6.08-9.7 9.37-14.38 2.75-3.93 5.83-7.63 8.84-11.36q2.8-3.44 5.85-6.71a43 43 0 0 1 11.3-8.82c3.87-2.09 7.94-3.52 12.4-3.5 3.2 0 6.29.62 9.3 1.66a24 24 0 0 1 9.66 6.04c1.62 1.68 2.93 3.66 4.29 5.57s2.62 3.9 3.92 5.86a6.6 6.6 0 0 0 5.75 2.95c1.17 0 2.19-.75 3.06-1.6 1.54-1.49 3.03-3.04 4.7-4.39 3.24-2.63 7.1-3.24 11.13-2.95 3 .2 5.8 1.15 8.36 2.74 3.39 2.1 5.44 5.18 6.54 8.96l.5 1.76c.69 2.34-.25 4.07-2.6 4.6-1.99.46-4 .83-6 1.2q-4.35.83-8.71 1.58c-2.21.37-4.44.65-6.65 1-2.27.36-4.52.77-6.78 1.12l-6.66.98-8 1.23c-2.27.33-4.54.61-6.8.97-3.33.5-6.64 1.07-9.96 1.6q-3.1.47-6.19.98l-8.58 1.48-5.88 1-8.88 1.52-5.88.96c-2.46.4-4.92.84-7.38 1.2-2.13.3-4.26.5-6.39.74z" clip-rule="evenodd"/><path fill="#FF9747" fill-rule="evenodd" d="M131.11 22.16c-2.77-.34-6.24 1.03-8.62 3.92l-.6.74-1.5-1.22.62-.74c2.73-3.32 6.82-5.04 10.34-4.6 1.78.22 3.44 1 4.65 2.43q1.15 1.36 1.63 3.36a9 9 0 0 1 2.5-1.61c1.78-.8 3.9-1.16 5.9-1 2 .14 3.98.8 5.43 2.13 1.49 1.36 2.32 3.35 2.1 5.92l-.07.95-1.92-.15.08-.96c.17-2.03-.48-3.42-1.49-4.35a7 7 0 0 0-4.27-1.63c-1.7-.13-3.5.18-4.98.84a5.6 5.6 0 0 0-3.05 2.8l-1.85-.35c-.03-2.17-.62-3.7-1.48-4.7a5.2 5.2 0 0 0-3.42-1.78" clip-rule="evenodd"/><path fill="#FF9747" d="M158.3 19.5c.07-3.27 2.6-7.41 5.78-8.46 1.97-.64 4.2.5 5.66 1.74a10 10 0 0 1 3.35 5.6c.23 1.15 1.77.73 1.89-.26.51-4.35 3.33-8.24 7.72-9.22 4.74-1.07 8.58 2.37 10.4 6.43.5 1.13 2.16.15 1.66-.97-2.2-4.93-6.82-8.34-12.35-7.36-5.4.95-8.75 5.98-9.35 11.12l1.88-.26c-.95-4.75-5.7-9.62-10.86-8.8-2.3.37-4.14 2.31-5.42 4.11a12 12 0 0 0-2.28 6.34c-.03 1.24 1.9 1.24 1.92 0"/><path fill="#1B73C5" fill-rule="evenodd" d="M303.19 5.4c.76-.03 1.41-.19 2-.04 6.6 1.66 13.4 1.71 20.13 2.29l21.13 1.75q10.38.87 20.77 1.72c6.13.5 12.26 1.02 18.4 1.41 5.3.34 10.6.5 15.9.77 4.8.26 9.6.6 14.41.87q3.57.2 7.12.33c1.75.07 2 .32 2.08 2.03a7 7 0 0 1-.94 3.85 48 48 0 0 1-6.48 9.06c-1.4 1.5-2.6 3.23-4 4.74q-3.75 4.02-7.64 7.88a19 19 0 0 1-6.86 4.45c-7.23 2.63-14.09-.78-16.32-8.15-.7-2.33-1.31-4.7-2.02-7.03-1.34-4.37-4.13-5.14-7.45-2.06-.85.78-1.64 1.64-2.48 2.44-3.8 3.6-8.27 5.26-13.52 4.67q-2.7-.29-4.92-1.81c-1.46-1-2.88-2.07-4.3-3.12-1.43-1.05-2.24-2.55-2.9-4.14q-1-2.26-1.93-4.54c-1.31-3.32-4.56-4.5-7.68-2-1.04.84-2.18 1.56-3.26 2.36-3.52 2.61-7.48 3.14-11.65 2.27-1.9-.39-3.75-1.06-5.58-1.7a7 7 0 0 1-2.22-1.25c-4.16-3.62-7.55-7.76-8.75-13.34-.26-1.17-.65-2.31-1.05-3.71" clip-rule="evenodd"/><path fill="#4DC769" fill-rule="evenodd" d="M153.96 176.1c-3.52 6.9-4.33 13.62-4.33 21 .97.15 3.53.63 4.33-.17.8-.96.16-6.4.48-7.85.8-4.64 2.24-9.13 3.52-13.61-.96-.16-1.92-.16-2.88-.16" clip-rule="evenodd"/><path fill="#0C325A" fill-rule="evenodd" d="M146.33 172.59a12 12 0 0 1-4.19-6.53c-.4-1.46-.73-2.94-.46-4.48.26-1.5.94-2.8 1.96-3.9.65-.71 1.54-1 2.45-1.2q.99-.2 1.28.8.19.66.2 1.36c.08 1.41.1 2.83.16 4.24q.04.98.26 1.95c.11.45.4.86.59 1.25.82-.06.97-.58 1.1-1.1l1.08-4.4a6 6 0 0 1 1.5-2.74q.34-.37.77-.62c1.08-.6 2.25-.13 2.57 1.07.18.66.25 1.36.3 2.04.13 1.97.22 3.94.36 5.9q.06.75.35 1.43c.27.61.79.75 1.4.45a2.5 2.5 0 0 0 1.21-1.37c.65-1.55 1.25-3.12 1.94-4.64.34-.74.75-1.47 1.27-2.1 1.1-1.31 2.45-1.09 3.18.48.46.98.54 2.02.48 3.09l-.27 3.73c-.07 1.04-.06 1.1.42 1.8a2.6 2.6 0 0 0 1.7-1.35q.77-1.42 1.52-2.87a4.2 4.2 0 0 1 2.72-2.25c1.03-.26 1.53 0 1.93 1 .48 1.17.41 2.4.36 3.6a14 14 0 0 1-1.21 5.36 7 7 0 0 1-1.89 2.5c-1.43 1.23-2.9 2.37-4.77 2.9q-.12.05-.23.16s-4.2.27-9.89-1.11a31 31 0 0 1-10.15-4.45" clip-rule="evenodd"/><path fill="#4DC769" d="M146.19 188.76a4.69 4.69 0 1 0 0-9.37 4.69 4.69 0 0 0 0 9.37"/><path fill="#0C325A" d="M292.63 33.06c2.46-.4 5.05-.74 7.5-.1 2.51.67 3.97 2.8 4.45 5.27.42 2.16-.79 4.7-2.25 6.2-1.47 1.54-3.52 1.27-4.28-.86-.72-2 3.21-3.62 4.5-4.07 3-1.07 6.54-1.26 9.48.11 7.04 3.29 6.98 15.5.26 19.1-1.99 1.07-4.56.78-4.48-1.94.14-4.31 4.18-8.02 7.72-9.85 5.9-3.04 14.35-2.66 18.37 3.22.34.5 1.18.02.83-.49-5.15-7.53-16.23-6.73-22.76-1.57-2.63 2.08-5.58 5.96-5.07 9.55.32 2.3 2.5 3 4.53 2.46 2.86-.77 4.9-3.37 5.94-6.01a13.8 13.8 0 0 0-1.07-11.94c-3.5-5.54-11.6-5.44-16.69-2.32-1.3.8-3.09 2.35-2.46 4.1.42 1.17 1.54 2.42 2.85 2.53 1.54.13 2.86-.99 3.72-2.16 2.33-3.17 2.53-7.36-.17-10.4-2.72-3.03-7.62-2.34-11.17-1.76-.61.1-.35 1.03.25.93"/><path fill="#F2AF3A" fill-rule="evenodd" d="M103.03 69.26c2.66-.42 5.18-.63 7.84-.92 6.3-.72 17.5-2.32 18.9-2.41s6.85-.9 9.97-.5c3.09.4 5.77 1.87 8.33 3.48 3.41 2.16 13.64 4.7 10.24 10.2-1.32 2.14-13.77 3.26-17.06 3.6-6.47.66-12.93 1.2-19.4 1.9-5.08.54-10.76 1.4-16.23 1.77a2.7 2.7 0 0 1-2.65-2.35c-.67-3.77-1.12-10.18-1.36-12.56-.05-.38.06-2 1.42-2.21" clip-rule="evenodd"/><path fill="#FF9747" fill-rule="evenodd" d="m99.67 81.75.26 2.4c.3 2.64-3.1 3.25-5.45 3.51-4.2.45-10.11 1.28-11.28 1.35-6.16.39-12.31 1.27-18.47 1.85-3.25.3-5.83.58-9.07 1.01-2.67.36-2.55-2.94-2.7-4.62-.25-2.66-2.62-10.25-.25-11.95 1.76-1.27 5.6-.76 7.73-1.28 3.08-.74 5.92-.73 9.04-1.1 5.56-.63 22.27-2.66 24.93-2.62 1.08.02 2.44.1 3.14 1.04.16.23 1.84 7.83 2.12 10.4" clip-rule="evenodd"/><path fill="#1B73C5" fill-rule="evenodd" d="m3.12 92.41.27 2.41c.28 2.63 3.72 2.5 6.07 2.25 4.2-.46 9.2-.97 10.35-1.15 6.1-.95 12.3-1.41 18.44-2.17 3.24-.4 6.62-.78 9.88-1.05 2.69-.23 1.86-3.43 1.64-5.1-.33-2.66-.45-10.48-3.14-11.64-2-.86-13.76.98-16.9 1.3-5.56.58-22.3 2.2-24.9 2.81-1.05.25-2.36.62-2.83 1.7-.12.25.84 8.07 1.12 10.64" clip-rule="evenodd"/><path fill="#fff" fill-rule="evenodd" d="M152.87 77.1a1.68 1.68 0 1 1 3.34-.37 1.68 1.68 0 0 1-3.34.36" clip-rule="evenodd"/><path fill="#0C325A" fill-rule="evenodd" d="M147.32 88.17c.48.66 1.37.83 2.17.82 1-.03 2.4-.87 2.6-2q.1-.61.01-1.24c-.13-.96-1.2-2.4-2.28-2.49-.57-.04-1.14.1-1.7.21-.63.11-1.14.46-1.4 1.1-.35.81-.57 1.66-.07 2.54.22.39.19.4.67 1.06m-39.63 4.33c.48.65 1.36.82 2.17.8 1-.02 2.4-.86 2.6-1.98q.1-.62.01-1.25c-.14-.96-1.2-2.4-2.29-2.49-.56-.04-1.14.1-1.7.21a1.8 1.8 0 0 0-1.4 1.1c-.34.81-.56 1.66-.06 2.54.22.4.19.4.67 1.06M91.4 94.27c.48.65 1.37.83 2.17.81 1-.02 2.4-.87 2.6-1.98q.1-.62.02-1.25c-.14-.97-1.2-2.4-2.29-2.49-.56-.05-1.14.1-1.7.2a1.8 1.8 0 0 0-1.4 1.1c-.34.82-.56 1.67-.07 2.55.23.39.2.4.68 1.06M57.5 97.96c.48.66 1.37.84 2.17.82 1-.03 2.4-.87 2.6-1.99q.1-.62.01-1.25c-.13-.96-1.2-2.39-2.29-2.48-.56-.05-1.13.1-1.7.2a1.8 1.8 0 0 0-1.4 1.1c-.34.82-.56 1.67-.06 2.55.22.38.19.4.67 1.05m-15.63 1.71c.48.65 1.36.83 2.17.81 1-.02 2.4-.86 2.6-1.98q.1-.62.01-1.25c-.13-.97-1.19-2.4-2.29-2.49-.56-.05-1.14.1-1.7.2-.62.12-1.13.47-1.4 1.1-.34.82-.56 1.67-.06 2.55.22.39.18.4.67 1.06m-33.91 3.7c.48.65 1.37.83 2.17.81 1-.03 2.4-.87 2.6-1.99q.1-.61.02-1.25c-.14-.96-1.2-2.39-2.3-2.48-.55-.05-1.13.1-1.7.2a1.8 1.8 0 0 0-1.4 1.1c-.34.82-.56 1.67-.06 2.55.22.39.19.4.67 1.06" clip-rule="evenodd"/><path fill="#0C325A" d="M145.3 67.3q1.4.74 2.77 1.61c.78.5 1.9 1 3.15 1.57q1.16.5 2.37 1.1l-20.81 2.27-.27-5.5z"/><path fill="#0C325A" fill-rule="evenodd" d="m104.64 76.91 26.43-2.47-.66-5.45-25.76 2.4zM76.38 80.2l20.02-1.98-1.07-5.4-18.95 1.86zm-1.98.22-19.53 2.33-.93-5.42 20.31-2.42zm-47.07 5.13 19.21-1.9-1.07-5.4-18.95 1.87zm-1.98.22L5.4 88.14l-.9-5.42 19.9-2.37z" clip-rule="evenodd"/></g><defs><clipPath id="a"><path fill="#fff" d="M0 0h430v225.24H0z"/></clipPath></defs></svg>